solid OpenSCAD_Model
  facet normal -1 0 0
    outer loop
      vertex -20 -30 9
      vertex -20 -30 20
      vertex -20 -27 20
    endloop
  endfacet
  facet normal -1 0 0
    outer loop
      vertex -20 -30 9
      vertex -20 -27 20
      vertex -20 -27 9
    endloop
  endfacet
  facet normal -3.40468e-017 -0 0
    outer loop
      vertex -20 -30 9
      vertex -20 -27 9
      vertex -20 30 9
    endloop
  endfacet
  facet normal -1 -0 0
    outer loop
      vertex -20 27 4
      vertex -20 30 9
      vertex -20 30 -3.67382e-015
    endloop
  endfacet
  facet normal -1 0 0
    outer loop
      vertex -20 27 4
      vertex -20 30 -3.67382e-015
      vertex -20 27 -3.30644e-015
    endloop
  endfacet
  facet normal -1 0 0
    outer loop
      vertex -20 -30 9
      vertex -20 30 9
      vertex -20 27 4
    endloop
  endfacet
  facet normal -1 -0 -0
    outer loop
      vertex -20 -27 4
      vertex -20 -30 9
      vertex -20 27 4
    endloop
  endfacet
  facet normal -1 0 0
    outer loop
      vertex -20 -30 9
      vertex -20 -27 4
      vertex -20 -27 3.30644e-015
    endloop
  endfacet
  facet normal -1 0 0
    outer loop
      vertex -20 -30 9
      vertex -20 -27 3.30644e-015
      vertex -20 -30 3.67382e-015
    endloop
  endfacet
  facet normal 0 -1 3.22974e-016
    outer loop
      vertex -20 -30 20
      vertex -20 -30 9
      vertex -17.5 -30 9
    endloop
  endfacet
  facet normal -1.42109e-015 -1 0
    outer loop
      vertex -17.5 -30 13
      vertex -20 -30 20
      vertex -17.5 -30 10
    endloop
  endfacet
  facet normal -1.42109e-015 -1 0
    outer loop
      vertex -17.5 -30 10
      vertex -20 -30 20
      vertex -17.5 -30 9
    endloop
  endfacet
  facet normal 0 -1 0
    outer loop
      vertex 20 -30 9
      vertex 17.5 -30 10
      vertex 17.5 -30 9
    endloop
  endfacet
  facet normal 1.2919e-016 -1 3.22974e-016
    outer loop
      vertex 20 -30 20
      vertex 17.5 -30 10
      vertex 20 -30 9
    endloop
  endfacet
  facet normal 0 -1 0
    outer loop
      vertex 17.5 -30 10
      vertex -17.5 -30 13
      vertex -17.5 -30 10
    endloop
  endfacet
  facet normal 1.06581e-015 -1 8.88178e-016
    outer loop
      vertex -17.5 -30 17
      vertex -20 -30 20
      vertex -17.5 -30 13
    endloop
  endfacet
  facet normal 0 -1 0
    outer loop
      vertex 20 -30 20
      vertex -20 -30 20
      vertex -1.25 -30 17
    endloop
  endfacet
  facet normal 0 -1 0
    outer loop
      vertex 17.5 -30 10
      vertex -1.25 -30 13
      vertex -17.5 -30 13
    endloop
  endfacet
  facet normal 0 -1 8.88178e-016
    outer loop
      vertex 1.25 -30 13
      vertex 1.25 -30 17
      vertex -1.25 -30 17
    endloop
  endfacet
  facet normal 0 -1 0
    outer loop
      vertex 17.5 -30 10
      vertex 1.25 -30 13
      vertex -1.25 -30 13
    endloop
  endfacet
  facet normal 0 -1 0
    outer loop
      vertex 20 -30 20
      vertex -1.25 -30 17
      vertex 1.25 -30 17
    endloop
  endfacet
  facet normal 0 -1 0
    outer loop
      vertex 20 -30 20
      vertex 1.25 -30 17
      vertex 17.5 -30 17
    endloop
  endfacet
  facet normal 1.42109e-015 -1 0
    outer loop
      vertex 20 -30 20
      vertex 17.5 -30 13
      vertex 17.5 -30 10
    endloop
  endfacet
  facet normal -1.06581e-015 -1 8.88178e-016
    outer loop
      vertex 20 -30 20
      vertex 17.5 -30 17
      vertex 17.5 -30 13
    endloop
  endfacet
  facet normal 0 -1 0
    outer loop
      vertex 17.5 -30 13
      vertex 1.25 -30 13
      vertex 17.5 -30 10
    endloop
  endfacet
  facet normal -0 -1 -0
    outer loop
      vertex -17.5 -30 17
      vertex -1.25 -30 17
      vertex -20 -30 20
    endloop
  endfacet
  facet normal 0 -1 8.88178e-016
    outer loop
      vertex -1.25 -30 17
      vertex -1.25 -30 13
      vertex 1.25 -30 13
    endloop
  endfacet
  facet normal 1 0 0
    outer loop
      vertex -17.5 -27 9
      vertex -17.5 -30 10
      vertex -17.5 -30 9
    endloop
  endfacet
  facet normal 1 0 0
    outer loop
      vertex -17.5 -27 10
      vertex -17.5 -30 10
      vertex -17.5 -27 9
    endloop
  endfacet
  facet normal 0 -1 0
    outer loop
      vertex -20 -30 9
      vertex -20 -30 3.67382e-015
      vertex -17 -30 3.67382e-015
    endloop
  endfacet
  facet normal 0 -1 0
    outer loop
      vertex 17 -30 4
      vertex -20 -30 9
      vertex -17 -30 4
    endloop
  endfacet
  facet normal 0 -1 0
    outer loop
      vertex -17 -30 4
      vertex -20 -30 9
      vertex -17 -30 3.67382e-015
    endloop
  endfacet
  facet normal 0 -1 0
    outer loop
      vertex 17.5 -30 9
      vertex -17.5 -30 9
      vertex 17 -30 4
    endloop
  endfacet
  facet normal 0 -1 0
    outer loop
      vertex 20 -30 3.67382e-015
      vertex 17 -30 4
      vertex 17 -30 3.67382e-015
    endloop
  endfacet
  facet normal 0 -1 0
    outer loop
      vertex 20 -30 9
      vertex 17 -30 4
      vertex 20 -30 3.67382e-015
    endloop
  endfacet
  facet normal 0 -1 0
    outer loop
      vertex -17.5 -30 9
      vertex -20 -30 9
      vertex 17 -30 4
    endloop
  endfacet
  facet normal 0 -1 0
    outer loop
      vertex 20 -30 9
      vertex 17.5 -30 9
      vertex 17 -30 4
    endloop
  endfacet
  facet normal -0 -1.22461e-016 -1
    outer loop
      vertex -20 -30 3.67382e-015
      vertex -20 -27 3.30644e-015
      vertex -17 -30 3.67382e-015
    endloop
  endfacet
  facet normal 0 -1.22461e-016 -1
    outer loop
      vertex -17 -30 3.67382e-015
      vertex -20 -27 3.30644e-015
      vertex -17 -27 3.30644e-015
    endloop
  endfacet
  facet normal 0 1 0
    outer loop
      vertex -20 -27 3.30644e-015
      vertex -20 -27 4
      vertex -17 -27 3.30644e-015
    endloop
  endfacet
  facet normal 0 1 0
    outer loop
      vertex -17 -27 3.30644e-015
      vertex -20 -27 4
      vertex -17 -27 4
    endloop
  endfacet
  facet normal -0 -1.15134e-016 -1
    outer loop
      vertex -20 -27 4
      vertex -20 27 4
      vertex -17 -27 4
    endloop
  endfacet
  facet normal 0 -1.15134e-016 -1
    outer loop
      vertex -17 -27 4
      vertex -20 27 4
      vertex -17 27 4
    endloop
  endfacet
  facet normal 0 -1.4803e-016 -1
    outer loop
      vertex -17 27 4
      vertex -17 30 4
      vertex 17 30 4
    endloop
  endfacet
  facet normal -2.90254e-018 -1.15134e-016 -1
    outer loop
      vertex -17 27 4
      vertex 17 30 4
      vertex -17 -27 4
    endloop
  endfacet
  facet normal 5.22458e-017 -1.4803e-016 -1
    outer loop
      vertex -17 -27 4
      vertex 17 30 4
      vertex 17 27 4
    endloop
  endfacet
  facet normal 0 -1.15134e-016 -1
    outer loop
      vertex -17 -27 4
      vertex 17 27 4
      vertex 20 27 4
    endloop
  endfacet
  facet normal -0 -1.15134e-016 -1
    outer loop
      vertex 17 -27 4
      vertex 20 27 4
      vertex 20 -27 4
    endloop
  endfacet
  facet normal -0 -1.15134e-016 -1
    outer loop
      vertex -17 -27 4
      vertex 20 27 4
      vertex 17 -27 4
    endloop
  endfacet
  facet normal 0 -2.96059e-016 -1
    outer loop
      vertex 17 -27 4
      vertex 17 -30 4
      vertex -17 -27 4
    endloop
  endfacet
  facet normal 0 -2.96059e-016 -1
    outer loop
      vertex -17 -27 4
      vertex 17 -30 4
      vertex -17 -30 4
    endloop
  endfacet
  facet normal 0 -1 0
    outer loop
      vertex -20 27 4
      vertex -20 27 -3.30644e-015
      vertex -17 27 -3.30644e-015
    endloop
  endfacet
  facet normal 0 -1 0
    outer loop
      vertex -17 27 4
      vertex -20 27 4
      vertex -17 27 -3.30644e-015
    endloop
  endfacet
  facet normal -0 -1.22461e-016 -1
    outer loop
      vertex -20 27 -3.30644e-015
      vertex -20 30 -3.67382e-015
      vertex -17 27 -3.30644e-015
    endloop
  endfacet
  facet normal 0 -1.22461e-016 -1
    outer loop
      vertex -17 27 -3.30644e-015
      vertex -20 30 -3.67382e-015
      vertex -17 30 -3.67382e-015
    endloop
  endfacet
  facet normal 0 1 -3.94746e-016
    outer loop
      vertex -20 30 -3.67382e-015
      vertex -20 30 9
      vertex -17 30 -3.67382e-015
    endloop
  endfacet
  facet normal 0 1 -7.10543e-016
    outer loop
      vertex -17 30 4
      vertex -20 30 9
      vertex 20 30 9
    endloop
  endfacet
  facet normal 0 1 -3.94746e-016
    outer loop
      vertex 17 30 -3.67382e-015
      vertex 20 30 9
      vertex 20 30 -3.67382e-015
    endloop
  endfacet
  facet normal -1.18424e-015 1 0
    outer loop
      vertex 17 30 4
      vertex 20 30 9
      vertex 17 30 -3.67382e-015
    endloop
  endfacet
  facet normal 1.18424e-015 1 0
    outer loop
      vertex -17 30 -3.67382e-015
      vertex -20 30 9
      vertex -17 30 4
    endloop
  endfacet
  facet normal 0 1 -7.10543e-016
    outer loop
      vertex -17 30 4
      vertex 20 30 9
      vertex 17 30 4
    endloop
  endfacet
  facet normal 0 1.24657e-016 1
    outer loop
      vertex 17.5 -27 9
      vertex 20 -27 9
      vertex -20 30 9
    endloop
  endfacet
  facet normal 0 1.24657e-016 1
    outer loop
      vertex -20 30 9
      vertex -20 -27 9
      vertex -17.5 -27 9
    endloop
  endfacet
  facet normal -4.02194e-017 1.22893e-016 1
    outer loop
      vertex 17.5 -30 9
      vertex -20 30 9
      vertex -17.5 -27 9
    endloop
  endfacet
  facet normal 0 5.92119e-016 1
    outer loop
      vertex -17.5 -30 9
      vertex 17.5 -30 9
      vertex -17.5 -27 9
    endloop
  endfacet
  facet normal 7.10543e-016 5.92119e-016 1
    outer loop
      vertex 17.5 -30 9
      vertex 17.5 -27 9
      vertex -20 30 9
    endloop
  endfacet
  facet normal 0 1.24657e-016 1
    outer loop
      vertex 20 -27 9
      vertex 20 30 9
      vertex -20 30 9
    endloop
  endfacet
  facet normal 0 1 -3.22974e-016
    outer loop
      vertex -20 -27 9
      vertex -20 -27 20
      vertex -17.5 -27 9
    endloop
  endfacet
  facet normal 0 1 0
    outer loop
      vertex -17.5 -27 17
      vertex -20 -27 20
      vertex 20 -27 20
    endloop
  endfacet
  facet normal 0 1 -3.22974e-016
    outer loop
      vertex 17.5 -27 9
      vertex 20 -27 20
      vertex 20 -27 9
    endloop
  endfacet
  facet normal -1.42109e-015 1 0
    outer loop
      vertex 17.5 -27 10
      vertex 20 -27 20
      vertex 17.5 -27 9
    endloop
  endfacet
  facet normal -1.42109e-015 1 0
    outer loop
      vertex 17.5 -27 13
      vertex 20 -27 20
      vertex 17.5 -27 10
    endloop
  endfacet
  facet normal 1.42109e-015 1 0
    outer loop
      vertex -17.5 -27 9
      vertex -20 -27 20
      vertex -17.5 -27 10
    endloop
  endfacet
  facet normal 0 1 0
    outer loop
      vertex -1.25 -27 13
      vertex -17.5 -27 10
      vertex -17.5 -27 13
    endloop
  endfacet
  facet normal 1.42109e-015 1 0
    outer loop
      vertex -17.5 -27 10
      vertex -20 -27 20
      vertex -17.5 -27 13
    endloop
  endfacet
  facet normal -0 1 0
    outer loop
      vertex -1.25 -27 17
      vertex -17.5 -27 17
      vertex 20 -27 20
    endloop
  endfacet
  facet normal -1.06581e-015 1 -8.88178e-016
    outer loop
      vertex -20 -27 20
      vertex -17.5 -27 17
      vertex -17.5 -27 13
    endloop
  endfacet
  facet normal 0 1 -8.88178e-016
    outer loop
      vertex -1.25 -27 17
      vertex 1.25 -27 17
      vertex -1.25 -27 13
    endloop
  endfacet
  facet normal -0 1 0
    outer loop
      vertex 1.25 -27 17
      vertex -1.25 -27 17
      vertex 20 -27 20
    endloop
  endfacet
  facet normal 0 1 0
    outer loop
      vertex 1.25 -27 17
      vertex 20 -27 20
      vertex 17.5 -27 17
    endloop
  endfacet
  facet normal 0 1 0
    outer loop
      vertex -1.25 -27 13
      vertex 1.25 -27 13
      vertex 17.5 -27 10
    endloop
  endfacet
  facet normal 1.06581e-015 1 -8.88178e-016
    outer loop
      vertex 17.5 -27 17
      vertex 20 -27 20
      vertex 17.5 -27 13
    endloop
  endfacet
  facet normal 0 1 0
    outer loop
      vertex 1.25 -27 13
      vertex 17.5 -27 13
      vertex 17.5 -27 10
    endloop
  endfacet
  facet normal 0 1 -8.88178e-016
    outer loop
      vertex 1.25 -27 13
      vertex -1.25 -27 13
      vertex 1.25 -27 17
    endloop
  endfacet
  facet normal 0 1 0
    outer loop
      vertex -17.5 -27 10
      vertex -1.25 -27 13
      vertex 17.5 -27 10
    endloop
  endfacet
  facet normal 0 -0 1
    outer loop
      vertex -20 -27 20
      vertex -20 -30 20
      vertex 20 -30 20
    endloop
  endfacet
  facet normal 0 0 1
    outer loop
      vertex 20 -27 20
      vertex -20 -27 20
      vertex 20 -30 20
    endloop
  endfacet
  facet normal 1 0 0
    outer loop
      vertex 20 -27 3.30644e-015
      vertex 20 -30 20
      vertex 20 -30 9
    endloop
  endfacet
  facet normal 1 0 0
    outer loop
      vertex 20 -30 3.67382e-015
      vertex 20 -27 3.30644e-015
      vertex 20 -30 9
    endloop
  endfacet
  facet normal 1 0 0
    outer loop
      vertex 20 -27 3.30644e-015
      vertex 20 -27 4
      vertex 20 -30 20
    endloop
  endfacet
  facet normal 1 0 0
    outer loop
      vertex 20 -27 9
      vertex 20 -27 20
      vertex 20 -30 20
    endloop
  endfacet
  facet normal 1 0 0
    outer loop
      vertex 20 27 -3.30644e-015
      vertex 20 30 -3.67382e-015
      vertex 20 27 4
    endloop
  endfacet
  facet normal 1 0 0
    outer loop
      vertex 20 30 -3.67382e-015
      vertex 20 30 9
      vertex 20 27 4
    endloop
  endfacet
  facet normal 1 0 0
    outer loop
      vertex 20 -27 4
      vertex 20 -27 9
      vertex 20 -30 20
    endloop
  endfacet
  facet normal 1 0 0
    outer loop
      vertex 20 -27 4
      vertex 20 27 4
      vertex 20 -27 9
    endloop
  endfacet
  facet normal 1 -0 0
    outer loop
      vertex 20 30 9
      vertex 20 -27 9
      vertex 20 27 4
    endloop
  endfacet
  facet normal -1 0 -0
    outer loop
      vertex 17.5 -30 9
      vertex 17.5 -30 10
      vertex 17.5 -27 10
    endloop
  endfacet
  facet normal -1 -0 0
    outer loop
      vertex 17.5 -30 9
      vertex 17.5 -27 10
      vertex 17.5 -27 9
    endloop
  endfacet
  facet normal -0 -0 -1
    outer loop
      vertex -17.5 -30 10
      vertex -17.5 -27 10
      vertex 17.5 -30 10
    endloop
  endfacet
  facet normal 0 0 -1
    outer loop
      vertex 17.5 -30 10
      vertex -17.5 -27 10
      vertex 17.5 -27 10
    endloop
  endfacet
  facet normal 0 -0 1
    outer loop
      vertex -17.5 -27 13
      vertex -17.5 -30 13
      vertex -1.25 -30 13
    endloop
  endfacet
  facet normal 0 0 1
    outer loop
      vertex -1.25 -27 13
      vertex -17.5 -27 13
      vertex -1.25 -30 13
    endloop
  endfacet
  facet normal 1 0 -0
    outer loop
      vertex -17.5 -30 17
      vertex -17.5 -30 13
      vertex -17.5 -27 13
    endloop
  endfacet
  facet normal 1 0 0
    outer loop
      vertex -17.5 -27 17
      vertex -17.5 -30 17
      vertex -17.5 -27 13
    endloop
  endfacet
  facet normal -1 -0 0
    outer loop
      vertex -1.25 -30 13
      vertex -1.25 -30 17
      vertex -1.25 -27 13
    endloop
  endfacet
  facet normal -1 0 -0
    outer loop
      vertex -1.25 -27 13
      vertex -1.25 -30 17
      vertex -1.25 -27 17
    endloop
  endfacet
  facet normal -0 -0 -1
    outer loop
      vertex -17.5 -30 17
      vertex -17.5 -27 17
      vertex -1.25 -30 17
    endloop
  endfacet
  facet normal 0 0 -1
    outer loop
      vertex -1.25 -30 17
      vertex -17.5 -27 17
      vertex -1.25 -27 17
    endloop
  endfacet
  facet normal 0 -0 1
    outer loop
      vertex 1.25 -27 13
      vertex 1.25 -30 13
      vertex 17.5 -30 13
    endloop
  endfacet
  facet normal 0 0 1
    outer loop
      vertex 17.5 -27 13
      vertex 1.25 -27 13
      vertex 17.5 -30 13
    endloop
  endfacet
  facet normal 1 0 -0
    outer loop
      vertex 1.25 -30 17
      vertex 1.25 -30 13
      vertex 1.25 -27 13
    endloop
  endfacet
  facet normal 1 0 0
    outer loop
      vertex 1.25 -27 17
      vertex 1.25 -30 17
      vertex 1.25 -27 13
    endloop
  endfacet
  facet normal -1 -0 0
    outer loop
      vertex 17.5 -30 13
      vertex 17.5 -30 17
      vertex 17.5 -27 13
    endloop
  endfacet
  facet normal -1 0 -0
    outer loop
      vertex 17.5 -27 13
      vertex 17.5 -30 17
      vertex 17.5 -27 17
    endloop
  endfacet
  facet normal -0 -0 -1
    outer loop
      vertex 1.25 -30 17
      vertex 1.25 -27 17
      vertex 17.5 -30 17
    endloop
  endfacet
  facet normal 0 0 -1
    outer loop
      vertex 17.5 -30 17
      vertex 1.25 -27 17
      vertex 17.5 -27 17
    endloop
  endfacet
  facet normal -0 -1.22461e-016 -1
    outer loop
      vertex 17 -30 3.67382e-015
      vertex 17 -27 3.30644e-015
      vertex 20 -30 3.67382e-015
    endloop
  endfacet
  facet normal 0 -1.22461e-016 -1
    outer loop
      vertex 20 -30 3.67382e-015
      vertex 17 -27 3.30644e-015
      vertex 20 -27 3.30644e-015
    endloop
  endfacet
  facet normal -1 -0 -0
    outer loop
      vertex 17 -30 3.67382e-015
      vertex 17 -30 4
      vertex 17 -27 3.30644e-015
    endloop
  endfacet
  facet normal -1 0 0
    outer loop
      vertex 17 -27 3.30644e-015
      vertex 17 -30 4
      vertex 17 -27 4
    endloop
  endfacet
  facet normal 1 0 -0
    outer loop
      vertex -17 -30 4
      vertex -17 -30 3.67382e-015
      vertex -17 -27 3.30644e-015
    endloop
  endfacet
  facet normal 1 -0 0
    outer loop
      vertex -17 -27 4
      vertex -17 -30 4
      vertex -17 -27 3.30644e-015
    endloop
  endfacet
  facet normal 0 1 0
    outer loop
      vertex 17 -27 3.30644e-015
      vertex 17 -27 4
      vertex 20 -27 3.30644e-015
    endloop
  endfacet
  facet normal 0 1 0
    outer loop
      vertex 20 -27 3.30644e-015
      vertex 17 -27 4
      vertex 20 -27 4
    endloop
  endfacet
  facet normal 0 -1 0
    outer loop
      vertex 17 27 4
      vertex 17 27 -3.30644e-015
      vertex 20 27 -3.30644e-015
    endloop
  endfacet
  facet normal 0 -1 0
    outer loop
      vertex 20 27 4
      vertex 17 27 4
      vertex 20 27 -3.30644e-015
    endloop
  endfacet
  facet normal -1 -0 -0
    outer loop
      vertex 17 27 -3.30644e-015
      vertex 17 27 4
      vertex 17 30 -3.67382e-015
    endloop
  endfacet
  facet normal -1 0 0
    outer loop
      vertex 17 30 -3.67382e-015
      vertex 17 27 4
      vertex 17 30 4
    endloop
  endfacet
  facet normal 1 0 -0
    outer loop
      vertex -17 27 4
      vertex -17 27 -3.30644e-015
      vertex -17 30 -3.67382e-015
    endloop
  endfacet
  facet normal 1 -0 0
    outer loop
      vertex -17 30 4
      vertex -17 27 4
      vertex -17 30 -3.67382e-015
    endloop
  endfacet
  facet normal -0 -1.22461e-016 -1
    outer loop
      vertex 17 27 -3.30644e-015
      vertex 17 30 -3.67382e-015
      vertex 20 27 -3.30644e-015
    endloop
  endfacet
  facet normal 0 -1.22461e-016 -1
    outer loop
      vertex 20 27 -3.30644e-015
      vertex 17 30 -3.67382e-015
      vertex 20 30 -3.67382e-015
    endloop
  endfacet
endsolid OpenSCAD_Model
